# xmcd CD database file
#
# Track frame offsets:
#	150
#	24250
#	48550
#	70007
#	95832
#	113782
#	135532
#	149485
#	169522
#	188345
#
# Disc length: 2740 seconds
#
# Revision: 0
# Processed by: cddbd v1.5.1PL0 Copyright (c) Steve Scherf et al.
# Submitted via: CDex 1.51
#
DISCID=820ab20a
DTITLE=沢田 駿吾 - Sjungo
DYEAR=1900
DGENRE=Jazz
TTITLE0=Django
TTITLE1=Night has a thousand eyes
TTITLE2=Stella by starlight
TTITLE3=Fanfare - For the common man -
TTITLE4=Sjungo
TTITLE5=Love for sale
TTITLE6=In a sentimental mood
TTITLE7=Straight no chaser
TTITLE8=Darn dat dream
TTITLE9=Flamingo
EXTD=
EXTT0=
EXTT1=
EXTT2=
EXTT3=
EXTT4=
EXTT5=
EXTT6=
EXTT7=
EXTT8=
EXTT9=
PLAYORDER=
